<?xml version="1.0" encoding="UTF-8"?>
<svg id="Layer_1" data-name="Layer 1" xmlns="http://www.w3.org/2000/svg" version="1.1" viewBox="0 0 160 160">
  <defs>
    <style>
      .cls-1 {
        fill: #fff;
        stroke-width: 0px;
      }
    </style>
  </defs>
  <path class="cls-1" d="M65.93,43.38c-1.92,2.35-3.53,4.39-5.21,6.36-7.86,9.15-15.74,18.29-23.61,27.43-6.56,7.62-13.13,15.22-19.67,22.85-2.05,2.39-4.01,4.85-6.03,7.27-1.31,1.56-1.77,1.49-2.43-.53-1.06-3.24-2.14-6.49-2.96-9.79-2.34-9.33-2.88-18.8-1.5-28.33,1.59-11.01,5.16-21.31,11.31-30.65,1.32-2.01,2.62-4.06,4.14-5.91.49-.59,1.79-1.01,2.54-.82,7.57,1.98,15.11,4.12,22.66,6.18,5.62,1.54,11.25,3.02,16.86,4.57,1.19.33,2.34.81,3.92,1.36Z"/>
  <path class="cls-1" d="M155.96,80.52c.14,9.02-1.99,17.6-4.91,26.09-3.12,9.05-8.41,16.68-14.54,23.86-1.46,1.71-2.94,2.23-5.09,1.32-6.28-2.66-12.61-5.22-18.93-7.78-5.52-2.24-11.06-4.41-16.56-6.69-2.09-.86-2.14-1.28-.62-2.93,5-5.42,10.03-10.82,15.04-16.22,7.75-8.35,15.52-16.69,23.25-25.06,5.41-5.86,10.75-11.78,16.15-17.64.49-.53,1.27-.8,1.92-1.19.39.67.93,1.29,1.14,2.01,2.31,7.9,3.44,15.97,3.15,24.23Z"/>
  <path class="cls-1" d="M128.98,138.29c-3.39,2.35-6.69,4.85-10.18,7.03-7.05,4.4-14.73,7.2-22.88,8.95-11.18,2.4-22.24,1.79-33.34-.28-1.86-.35-2.73-1.2-2.98-3.31-1.22-10.05-2.71-20.07-4.04-30.1-.55-4.12-.92-8.26-1.36-12.39-.2-1.88.42-2.31,2.19-1.56,8.08,3.42,16.18,6.8,24.24,10.25,9.61,4.12,19.16,8.34,28.78,12.42,5.61,2.38,11.3,4.56,16.95,6.85.84.34,1.61.84,2.42,1.26.07.29.14.58.21.87Z"/>
  <path class="cls-1" d="M102.91,48.12c-5.15-1.48-9.84-2.81-14.52-4.16-6.88-1.99-13.76-3.97-20.64-5.98-6.69-1.95-13.37-3.92-20.05-5.87-5.52-1.61-11.05-3.2-16.58-4.8-1.22-.35-2.43-.75-3.65-1.11-1.78-.53-1.95-1.12-.59-2.44,5.24-5.09,11.25-9.1,17.69-12.45,7.85-4.08,16.17-7.11,24.95-7.95,7.43-.7,14.99-.19,22.48-.19,2.17,0,3.17,1.25,3.54,3.33,1.87,10.55,3.8,21.09,5.72,31.64.47,2.57,1.03,5.12,1.51,7.68.12.62.08,1.27.14,2.29Z"/>
  <path class="cls-1" d="M114.98,84.43c-.46-1.96-.94-3.55-1.21-5.18-1.36-8.2-2.66-16.41-4-24.62-1.19-7.28-2.32-14.56-3.65-21.82-1.53-8.37-3.27-16.7-4.88-25.06-.12-.6.02-1.79.15-1.8.82-.1,1.74-.12,2.51.15,7.9,2.73,15.29,6.37,21.98,11.49,9.31,7.13,16.77,15.74,22.26,26.1,1.14,2.14,1.24,3.69-.57,5.63-7.64,8.19-15.09,16.56-22.64,24.83-2.71,2.97-5.5,5.87-8.28,8.79-.44.46-.95.84-1.68,1.48Z"/>
  <path class="cls-1" d="M44.76,77.52c.4,2.83.85,5.66,1.2,8.5.53,4.32.98,8.65,1.49,12.98.88,7.58,1.73,15.16,2.66,22.73.86,6.98,1.79,13.95,2.7,20.93.28,2.13.62,4.25.84,6.38.18,1.8-.49,2.24-2.08,1.55-10.8-4.66-20.35-11.16-28.04-20.06-3.66-4.23-6.59-9.08-9.82-13.67-.98-1.39-.78-2.69.34-4.02,4.59-5.41,9.12-10.88,13.69-16.32,4.65-5.54,9.32-11.07,13.99-16.59.77-.91,1.62-1.74,2.43-2.61.2.07.41.13.61.2Z"/>
</svg>